<svg xmlns="http://www.w3.org/2000/svg" xmlns:xlink="http://www.w3.org/1999/xlink" width="254" zoomAndPan="magnify" viewBox="0 0 190.5 302.249993" height="403" preserveAspectRatio="xMidYMid meet" version="1.0"><defs><clipPath id="3cda726cc8"><path d="M 8.105469 9.011719 L 181.648438 9.011719 L 181.648438 301 L 8.105469 301 Z M 8.105469 9.011719 " clip-rule="nonzero"/></clipPath><clipPath id="ff471f790f"><path d="M 0 0.0234375 L 189.789062 0.0234375 L 189.789062 16.902344 L 0 16.902344 Z M 0 0.0234375 " clip-rule="nonzero"/></clipPath></defs><g clip-path="url(#3cda726cc8)"><path fill="#52575f" d="M 8.105469 9.09375 L 181.683594 9.09375 L 181.683594 248.703125 C 181.683594 253.722656 178.917969 258.324219 174.488281 260.652344 L 101.101562 299.226562 C 97.214844 301.277344 92.574219 301.277344 88.6875 299.226562 L 15.324219 260.640625 C 10.910156 258.3125 8.128906 253.707031 8.128906 248.691406 L 8.128906 122.792969 Z M 8.105469 9.09375 " fill-opacity="1" fill-rule="nonzero"/></g><g clip-path="url(#ff471f790f)"><path fill="#eda801" d="M 0 0.0234375 L 189.78125 0.0234375 L 189.78125 16.902344 L 0 16.902344 Z M 0 0.0234375 " fill-opacity="1" fill-rule="nonzero"/></g></svg>