<svg xmlns="http://www.w3.org/2000/svg" xmlns:xlink="http://www.w3.org/1999/xlink" width="70" zoomAndPan="magnify" viewBox="0 0 52.5 52.499999" height="70" preserveAspectRatio="xMidYMid meet" version="1.0"><defs><clipPath id="bf2345b986"><path d="M 0 0 L 52.003906 0 L 52.003906 52.003906 L 0 52.003906 Z M 0 0 " clip-rule="nonzero"/></clipPath><clipPath id="2a7cb4ee41"><path d="M 0 0 L 52.003906 0 L 52.003906 52.003906 L 0 52.003906 Z M 0 0 " clip-rule="nonzero"/></clipPath></defs><g clip-path="url(#bf2345b986)"><path fill="#f5f5f5" d="M 11.699219 0 L 40.277344 0 C 43.503906 0 46.429688 1.308594 48.5625 3.441406 C 50.664062 5.542969 52.003906 8.5 52.003906 11.699219 L 52.003906 40.277344 C 52.003906 43.503906 50.664062 46.429688 48.5625 48.5625 C 46.429688 50.664062 43.503906 52.003906 40.277344 52.003906 L 11.699219 52.003906 C 8.5 52.003906 5.542969 50.664062 3.441406 48.5625 C 1.308594 46.429688 0 43.503906 0 40.277344 L 0 11.699219 C 0 8.5 1.308594 5.542969 3.441406 3.441406 C 5.542969 1.308594 8.5 0 11.699219 0 Z M 40.277344 4.628906 L 11.699219 4.628906 C 9.75 4.628906 7.980469 5.421875 6.703125 6.703125 C 5.421875 7.980469 4.628906 9.75 4.628906 11.699219 L 4.628906 40.277344 C 4.628906 42.226562 5.421875 43.992188 6.703125 45.273438 C 7.980469 46.582031 9.75 47.375 11.699219 47.375 L 40.277344 47.375 C 42.226562 47.375 43.992188 46.582031 45.273438 45.273438 C 46.582031 43.992188 47.375 42.226562 47.375 40.277344 L 47.375 11.699219 C 47.375 9.75 46.582031 7.980469 45.273438 6.703125 C 43.992188 5.421875 42.226562 4.628906 40.277344 4.628906 Z M 40.277344 4.628906 " fill-opacity="1" fill-rule="nonzero"/></g><path fill="#f5f5f5" d="M 40.582031 9.078125 C 41.21875 9.078125 41.828125 9.324219 42.226562 9.75 C 42.652344 10.175781 42.925781 10.753906 42.925781 11.394531 C 42.925781 12.035156 42.652344 12.644531 42.226562 13.039062 C 41.828125 13.464844 41.21875 13.738281 40.582031 13.738281 C 39.941406 13.738281 39.363281 13.464844 38.933594 13.039062 C 38.507812 12.644531 38.265625 12.035156 38.265625 11.394531 C 38.265625 10.753906 38.507812 10.175781 38.933594 9.75 C 39.363281 9.324219 39.941406 9.078125 40.582031 9.078125 Z M 40.582031 9.078125 " fill-opacity="1" fill-rule="nonzero"/><path fill="#f5f5f5" d="M 25.988281 13.375 C 29.492188 13.375 32.628906 14.804688 34.914062 17.0625 C 37.199219 19.34375 38.628906 22.515625 38.628906 25.988281 C 38.628906 29.492188 37.199219 32.628906 34.914062 34.914062 C 32.628906 37.199219 29.492188 38.628906 25.988281 38.628906 C 22.515625 38.628906 19.34375 37.199219 17.0625 34.914062 C 14.804688 32.628906 13.375 29.492188 13.375 25.988281 C 13.375 22.515625 14.804688 19.34375 17.0625 17.0625 C 19.34375 14.804688 22.515625 13.375 25.988281 13.375 Z M 31.625 20.382812 C 30.191406 18.949219 28.179688 18.035156 25.988281 18.035156 C 23.792969 18.035156 21.8125 18.949219 20.382812 20.382812 C 18.949219 21.8125 18.035156 23.792969 18.035156 25.988281 C 18.035156 28.179688 18.949219 30.191406 20.382812 31.625 C 21.8125 33.054688 23.792969 33.9375 25.988281 33.9375 C 28.179688 33.9375 30.191406 33.054688 31.625 31.625 C 33.054688 30.191406 33.9375 28.179688 33.9375 25.988281 C 33.9375 23.792969 33.054688 21.8125 31.625 20.382812 Z M 31.625 20.382812 " fill-opacity="1" fill-rule="nonzero"/><g clip-path="url(#2a7cb4ee41)"><path fill="#f5f5f5" d="M 11.699219 0 L 40.277344 0 C 43.503906 0 46.429688 1.308594 48.5625 3.441406 C 50.664062 5.542969 52.003906 8.5 52.003906 11.699219 L 52.003906 40.277344 C 52.003906 43.503906 50.664062 46.429688 48.5625 48.5625 C 46.429688 50.664062 43.503906 52.003906 40.277344 52.003906 L 11.699219 52.003906 C 8.5 52.003906 5.542969 50.664062 3.441406 48.5625 C 1.308594 46.429688 0 43.503906 0 40.277344 L 0 11.699219 C 0 8.5 1.308594 5.542969 3.441406 3.441406 C 5.542969 1.308594 8.5 0 11.699219 0 Z M 40.277344 4.628906 L 11.699219 4.628906 C 9.75 4.628906 7.980469 5.421875 6.703125 6.703125 C 5.421875 7.980469 4.628906 9.75 4.628906 11.699219 L 4.628906 40.277344 C 4.628906 42.226562 5.421875 43.992188 6.703125 45.273438 C 7.980469 46.582031 9.75 47.375 11.699219 47.375 L 40.277344 47.375 C 42.226562 47.375 43.992188 46.582031 45.273438 45.273438 C 46.582031 43.992188 47.375 42.226562 47.375 40.277344 L 47.375 11.699219 C 47.375 9.75 46.582031 7.980469 45.273438 6.703125 C 43.992188 5.421875 42.226562 4.628906 40.277344 4.628906 Z M 40.277344 4.628906 " fill-opacity="1" fill-rule="nonzero"/></g><path fill="#f5f5f5" d="M 40.582031 9.078125 C 41.21875 9.078125 41.828125 9.324219 42.226562 9.75 C 42.652344 10.175781 42.925781 10.753906 42.925781 11.394531 C 42.925781 12.035156 42.652344 12.644531 42.226562 13.039062 C 41.828125 13.464844 41.21875 13.738281 40.582031 13.738281 C 39.941406 13.738281 39.363281 13.464844 38.933594 13.039062 C 38.507812 12.644531 38.265625 12.035156 38.265625 11.394531 C 38.265625 10.753906 38.507812 10.175781 38.933594 9.75 C 39.363281 9.324219 39.941406 9.078125 40.582031 9.078125 Z M 40.582031 9.078125 " fill-opacity="1" fill-rule="nonzero"/><path fill="#f5f5f5" d="M 25.988281 13.375 C 29.492188 13.375 32.628906 14.804688 34.914062 17.0625 C 37.199219 19.34375 38.628906 22.515625 38.628906 25.988281 C 38.628906 29.492188 37.199219 32.628906 34.914062 34.914062 C 32.628906 37.199219 29.492188 38.628906 25.988281 38.628906 C 22.515625 38.628906 19.34375 37.199219 17.0625 34.914062 C 14.804688 32.628906 13.375 29.492188 13.375 25.988281 C 13.375 22.515625 14.804688 19.34375 17.0625 17.0625 C 19.34375 14.804688 22.515625 13.375 25.988281 13.375 Z M 31.625 20.382812 C 30.191406 18.949219 28.179688 18.035156 25.988281 18.035156 C 23.792969 18.035156 21.8125 18.949219 20.382812 20.382812 C 18.949219 21.8125 18.035156 23.792969 18.035156 25.988281 C 18.035156 28.179688 18.949219 30.191406 20.382812 31.625 C 21.8125 33.054688 23.792969 33.9375 25.988281 33.9375 C 28.179688 33.9375 30.191406 33.054688 31.625 31.625 C 33.054688 30.191406 33.9375 28.179688 33.9375 25.988281 C 33.9375 23.792969 33.054688 21.8125 31.625 20.382812 Z M 31.625 20.382812 " fill-opacity="1" fill-rule="nonzero"/></svg>