<?xml version="1.0" ?><svg height="48px" version="1.1" viewBox="0 0 48 48" width="48px" xmlns="http://www.w3.org/2000/svg" xmlns:xlink="http://www.w3.org/1999/xlink"><title/><desc/><g fill="none" fill-rule="evenodd" id="Page-1" stroke="none" stroke-width="1"><g id="Artboard-Copy" transform="translate(-167.000000, -429.000000)"><path d="M185.0005,436 C184.4465,436 183.9995,436.447 183.9995,437 L183.9995,464 L181.0005,464 C180.4485,464 179.9995,464.447 179.9995,465 L179.9995,467 L190.0005,467 L190.0005,465 C190.0005,464.447 189.5515,464 189.0005,464 L186.0005,464 L186.0005,437 C186.0005,436.447 185.5515,436 185.0005,436 L185.0005,436 Z M187.9995,438.002 L187.9995,448 L204.0005,448 L200.0005,443.25 L204.0005,438.002 L187.9995,438.002 Z" fill="#F5F5F5" id="flag"/><g id="slices" transform="translate(47.000000, 9.000000)"/></g></g></svg>