<svg xmlns="http://www.w3.org/2000/svg" xmlns:xlink="http://www.w3.org/1999/xlink" width="177" zoomAndPan="magnify" viewBox="0 0 132.75 238.499993" height="318" preserveAspectRatio="xMidYMid meet" version="1.0"><defs><clipPath id="16dcb170aa"><path d="M 0.015625 0 L 132.488281 0 L 132.488281 237.253906 L 0.015625 237.253906 Z M 0.015625 0 " clip-rule="nonzero"/></clipPath></defs><g clip-path="url(#16dcb170aa)"><path fill="#02265A" d="M 99.152344 27.070312 C 85.511719 24.179688 71.582031 9.902344 53.445312 9.621094 C 46.199219 9.507812 40.011719 10.644531 36.074219 11.621094 L 36.074219 4.394531 C 36.074219 1.894531 34.046875 -0.132812 31.539062 -0.132812 C 29.035156 -0.132812 27.007812 1.894531 27.007812 4.394531 L 27.007812 229.558594 C 11.90625 229.832031 0.300781 231.433594 0.300781 233.371094 C 0.300781 235.5 14.289062 237.226562 31.539062 237.226562 C 48.792969 237.226562 62.78125 235.5 62.78125 233.371094 C 62.78125 231.433594 51.171875 229.832031 36.074219 229.558594 L 36.074219 66.691406 C 40.949219 65.367188 49.015625 62.546875 56.554688 56.964844 C 73.160156 44.683594 82.847656 53.152344 100.136719 50.15625 C 118.070312 47.050781 132.199219 24.40625 132.199219 24.40625 C 132.199219 24.40625 112.0625 29.808594 99.152344 27.070312 Z M 99.152344 27.070312 " fill-opacity="1" fill-rule="nonzero"/><path fill="#02265A" d="M 99.152344 27.070312 C 85.511719 24.179688 71.582031 9.902344 53.445312 9.621094 C 46.199219 9.507812 40.011719 10.644531 36.074219 11.621094 L 36.074219 4.394531 C 36.074219 1.894531 34.046875 -0.132812 31.539062 -0.132812 C 29.035156 -0.132812 27.007812 1.894531 27.007812 4.394531 L 27.007812 229.558594 C 11.90625 229.832031 0.300781 231.433594 0.300781 233.371094 C 0.300781 235.5 14.289062 237.226562 31.539062 237.226562 C 48.792969 237.226562 62.78125 235.5 62.78125 233.371094 C 62.78125 231.433594 51.171875 229.832031 36.074219 229.558594 L 36.074219 66.691406 C 40.949219 65.367188 49.015625 62.546875 56.554688 56.964844 C 73.160156 44.683594 82.847656 53.152344 100.136719 50.15625 C 118.070312 47.050781 132.199219 24.40625 132.199219 24.40625 C 132.199219 24.40625 112.0625 29.808594 99.152344 27.070312 Z M 99.152344 27.070312 " fill-opacity="1" fill-rule="nonzero"/></g></svg>