<svg width="155" height="91" viewBox="0 0 155 91" fill="none" xmlns="http://www.w3.org/2000/svg"><path d="M30.998 31H0v30.997h30.998V31z" fill="#FFF0D7"/><path d="M15.5 61.997h15.498l-15.5-15.5L31 31h-15.5v30.997z" fill="navy"/><path d="M61.997 31H31v30.997h30.997V31z" fill="#FFF0D7"/><path d="M30.998 61.997h31l-15.5-15.5L61.998 31h-31v30.997z" fill="#A00"/><path d="M123.994 30.997v31h15.5v-31h-15.5z" fill="#FFC900"/><path d="M139.493 30.997v31h15.5v-31h-15.5z" fill="navy"/><path d="M61.997 0H31v31h30.997V0z" fill="#FFC900"/><path d="M46.498 23.25c4.28 0 7.75-3.47 7.75-7.75 0-4.28-3.47-7.75-7.75-7.75-4.28 0-7.75 3.47-7.75 7.75 0 4.28 3.47 7.75 7.75 7.75zM15.5 15.5H0V31h15.5V15.5z" fill="navy"/><path d="M15.5 0H0v15.5h15.5V0zM30.998 15.5h-15.5V31H31V15.5z" fill="#FFC900"/><path d="M30.998 0h-15.5v15.5H31V0zM92.996 0h-31v31h31V0z" fill="navy"/><path d="M85.246 7.75h-15.5v15.5h15.5V7.75z" fill="#FFF0D7"/><path d="M92.996 31H61.998v30.997h30.998V31z" fill="#A00"/><path d="M81.374 61.998v-31h-7.75v31h7.75z" fill="#FFC900"/><path d="M61.996 50.376h30.998v-7.75H61.996v7.75z" fill="#FFC900"/><path d="M154.993 0h-31v31h31V0z" fill="#FFF0D7"/><path d="M151.34 31L123.994 3.652V0h3.653l27.346 27.346V31h-3.653z" fill="#A00"/><path d="M123.994 27.346L151.34 0h3.653v3.653L127.647 31h-3.653v-3.654z" fill="#A00"/><path d="M123.995 0h-31v31h31V0z" fill="#FFF0D7"/><path d="M92.994 15.5h15.5V0h-15.5v15.5z" fill="#A00"/><path d="M108.493 30.998h15.5v-15.5h-15.5V31z" fill="#A00"/><path d="M123.994 31H92.996v30.997h30.998V31z" fill="#FFC900"/><path d="M108.495 54.248c4.28 0 7.75-3.47 7.75-7.75 0-4.28-3.47-7.75-7.75-7.75-4.28 0-7.75 3.47-7.75 7.75 0 4.28 3.47 7.75 7.75 7.75zM0 90.19V71.3h4.177v15.098h9.39v3.8H0v-.01zM16.425 90.19V71.3h4.177v18.896h-4.177v-.007zM24.423 90.19V71.3h7.968c1.598 0 3.034.598 4.368 1.764 1.327 1.167 2.005 2.712 2.005 4.637 0 1.845-.65 3.362-1.954 4.58-1.3 1.216-2.764 1.814-4.42 1.814h-3.797v6.102h-4.17v-.007zm4.177-9.894h3.55c.57 0 1.138-.19 1.655-.598.518-.408.788-1.086.788-2.005 0-.918-.27-1.574-.788-1.975-.517-.41-1.086-.627-1.655-.627H28.6v5.206zM41.14 71.3h4.177v10.82c0 3.06 1.297 4.577 3.878 4.577 2.58 0 3.85-1.516 3.85-4.578V71.3h4.177v11.25c0 2.55-.758 4.497-2.275 5.882-1.516 1.385-3.44 2.063-5.744 2.063-2.333 0-4.258-.678-5.774-2.034-1.518-1.384-2.276-3.33-2.276-5.91V71.3h-.015zM95.817 90.19V71.3h7.51c1.515 0 2.79.46 3.82 1.385 1.056.897 1.574 2.063 1.574 3.44 0 1.816-.896 3.252-2.412 3.8 2.413.43 3.798 2.274 3.798 4.687 0 1.597-.54 2.953-1.655 4.01-1.085 1.057-2.44 1.574-4.09 1.574h-8.543v-.007zm4.09-11.36h2.74c1.197 0 2.035-.838 2.035-2.004 0-1.108-.838-1.954-2.005-1.954h-2.763v3.96h-.007zm0 7.758h3.61c1.406 0 2.44-1.006 2.44-2.304 0-1.298-1.027-2.224-2.463-2.224h-3.58v4.528h-.007zM112.84 90.19V71.3h7.917c1.765 0 3.28.598 4.528 1.815 1.275 1.196 1.895 2.654 1.895 4.418 0 2.413-1.327 4.498-3.36 5.366l4.607 7.29h-4.717l-3.93-6.293h-2.792v6.292h-4.148zm4.148-9.974h3.303c1.626 0 2.713-1.028 2.713-2.632 0-1.436-1.028-2.493-2.355-2.493h-3.66v5.126zM130.73 90.19V71.3h4.178v18.896h-4.178v-.007zM138.728 90.19V71.3h4.177v8.486l6.75-8.486h5.046l-7.588 9.273L155 90.196h-5.096l-6.99-8.617v8.616h-4.186v-.007zM69.076 90.19l9.28-18.89H73.91l-5.286 11.08-5.256-11.08H58.92l9.252 18.89h.904zM83.43 71.3l-9.31 18.896h4.42l1.464-3.01h7.888l1.466 3.01h4.447L84.495 71.3H83.43zm-1.88 12.328l2.384-4.958 2.413 4.958H81.55z" fill="navy"/></svg>