<svg xmlns="http://www.w3.org/2000/svg" xmlns:xlink="http://www.w3.org/1999/xlink" width="96" zoomAndPan="magnify" viewBox="0 0 72 54" height="72" preserveAspectRatio="xMidYMid meet" version="1.0"><defs><clipPath id="124b5d5989"><path d="M 0.65625 0.832031 L 71.34375 0.832031 L 71.34375 52.375 L 0.65625 52.375 Z M 0.65625 0.832031 " clip-rule="nonzero"/></clipPath><clipPath id="3a132fcb27"><path d="M 0.65625 0 L 71.34375 0 L 71.34375 51.546875 L 0.65625 51.546875 Z M 0.65625 0 " clip-rule="nonzero"/></clipPath></defs><g clip-path="url(#124b5d5989)"><path fill="#f5f5f5" d="M 71.105469 12.503906 C 71.105469 6.066406 65.886719 0.851562 59.449219 0.851562 C 46.960938 0.851562 24.910156 0.851562 12.417969 0.851562 C 5.984375 0.851562 0.765625 6.066406 0.765625 12.503906 C 0.765625 20.703125 0.765625 32.582031 0.765625 40.777344 C 0.765625 47.214844 5.984375 52.433594 12.417969 52.433594 C 24.910156 52.433594 46.960938 52.433594 59.449219 52.433594 C 65.886719 52.433594 71.105469 47.214844 71.105469 40.777344 Z M 45.453125 28.003906 L 37.535156 35.390625 C 36.632812 36.230469 35.238281 36.230469 34.335938 35.390625 L 26.960938 28.515625 L 9.621094 47.15625 C 10.476562 47.535156 11.421875 47.742188 12.417969 47.742188 C 12.417969 47.742188 59.449219 47.742188 59.449219 47.742188 C 60.464844 47.742188 61.429688 47.527344 62.300781 47.136719 Z M 6.273438 9.226562 L 23.53125 25.316406 L 6.210938 43.9375 C 5.726562 42.988281 5.453125 41.914062 5.453125 40.777344 C 5.453125 40.777344 5.453125 12.503906 5.453125 12.503906 C 5.453125 11.320312 5.75 10.203125 6.273438 9.226562 Z M 65.597656 9.226562 C 66.121094 10.203125 66.417969 11.320312 66.417969 12.503906 L 66.417969 40.777344 C 66.417969 41.894531 66.152344 42.949219 65.6875 43.886719 L 48.886719 24.808594 Z M 62.113281 6.066406 L 35.933594 30.46875 L 9.757812 6.066406 C 10.578125 5.726562 11.476562 5.539062 12.417969 5.539062 C 12.417969 5.539062 59.449219 5.539062 59.449219 5.539062 C 60.394531 5.539062 61.292969 5.726562 62.113281 6.066406 Z M 62.113281 6.066406 " fill-opacity="1" fill-rule="evenodd"/></g><g clip-path="url(#3a132fcb27)"><path fill="#f5f5f5" d="M 71.105469 11.671875 C 71.105469 5.238281 65.886719 0.0195312 59.449219 0.0195312 C 46.960938 0.0195312 24.910156 0.0195312 12.417969 0.0195312 C 5.984375 0.0195312 0.765625 5.238281 0.765625 11.671875 C 0.765625 19.871094 0.765625 31.75 0.765625 39.945312 C 0.765625 46.382812 5.984375 51.601562 12.417969 51.601562 C 24.910156 51.601562 46.960938 51.601562 59.449219 51.601562 C 65.886719 51.601562 71.105469 46.382812 71.105469 39.945312 Z M 45.453125 27.175781 L 37.535156 34.558594 C 36.632812 35.398438 35.238281 35.398438 34.335938 34.558594 L 26.960938 27.683594 L 9.621094 46.328125 C 10.476562 46.703125 11.421875 46.910156 12.417969 46.910156 C 12.417969 46.910156 59.449219 46.910156 59.449219 46.910156 C 60.464844 46.910156 61.429688 46.695312 62.300781 46.304688 Z M 6.273438 8.394531 L 23.53125 24.484375 L 6.210938 43.105469 C 5.726562 42.15625 5.453125 41.085938 5.453125 39.949219 C 5.453125 39.945312 5.453125 11.671875 5.453125 11.671875 C 5.453125 10.488281 5.75 9.371094 6.273438 8.394531 Z M 65.597656 8.394531 C 66.121094 9.371094 66.417969 10.488281 66.417969 11.671875 L 66.417969 39.945312 C 66.417969 41.0625 66.152344 42.117188 65.6875 43.054688 L 48.886719 23.976562 Z M 62.113281 5.234375 L 35.933594 29.636719 L 9.757812 5.234375 C 10.578125 4.894531 11.476562 4.707031 12.417969 4.707031 C 12.417969 4.707031 59.449219 4.707031 59.449219 4.707031 C 60.394531 4.707031 61.292969 4.894531 62.113281 5.234375 Z M 62.113281 5.234375 " fill-opacity="1" fill-rule="evenodd"/></g></svg>