<?xml version="1.0" encoding="utf-8"?>
<!-- Generator: Adobe Illustrator 19.0.0, SVG Export Plug-In . SVG Version: 6.00 Build 0)  -->
<svg version="1.1" id="Foreground" xmlns="http://www.w3.org/2000/svg" xmlns:xlink="http://www.w3.org/1999/xlink" x="0px" y="0px"
	 viewBox="0 0 842 595" style="enable-background:new 0 0 842 595;" xml:space="preserve">
<style type="text/css">
	.st0{fill-rule:evenodd;clip-rule:evenodd;}
</style>
<path class="st0" d="M389.6,203.9c5.2-8.4,8.7-8.7,12.3-6.3c2.5,1.7,3.7,2.9,6.1,1.6c-3.9-3.6-6.4-8.7-6.4-14.4
	c0-10.7,8.7-19.5,19.5-19.5c10.7,0,19.5,8.7,19.5,19.5c0,5.7-2.5,10.9-6.4,14.5c2.3,1.3,3.5,0,6-1.6c3.6-2.4,7.1-2.1,12.3,6.3
	l-2.6,1.6c-2.5-4-4.2-5.5-5.3-6c-3.1-1.3-6,6.6-13,1.7c-3,1.9-6.6,3-10.4,3c-3.8,0-7.4-1.1-10.4-3c-7.1,5-10-2.9-13.1-1.7
	c-1.1,0.4-2.8,1.9-5.3,6L389.6,203.9z M421.1,168.4c-9,0-16.3,7.3-16.3,16.3s7.3,16.3,16.3,16.3c9,0,16.3-7.3,16.3-16.3
	S430.1,168.4,421.1,168.4z M449.9,452.8v45H559v-45H449.9z M392.3,497.8v-45H283v45H392.3z M228.6,497.8v-45h-106v45L228.6,497.8z
	 M122.6,237.9h106v-16.1h-106V237.9z M613.5,221.8v16.1h106v-16.1H613.5z M719.5,452.8h-106v45l106,0V452.8z M279.9,237.9v-16.1
	h-48.2v16.1H279.9z M279.9,497.8v-45h-48.2v45H279.9z M562.1,452.8v45h48.3v-45H562.1z M562.1,221.8v16.1h48.3v-16.1H562.1z
	 M559,237.9v-16.1H283v16.1H559z M228.6,385.3h-106v64.4h106V385.3z M279.9,385.3h-48.2v64.4h48.2V385.3z M610.4,385.3h-48.3v64.4
	h48.3V385.3z M719.5,385.3h-106v64.4h106V385.3z M613.5,382.2h106V241.1h-106V382.2z M562.1,382.2h48.3V241.1h-48.3V382.2z
	 M283,382.2h276V241.1H283V382.2z M231.7,382.2h48.2V241.1h-48.2V382.2z M122.6,382.2h106V241.1h-106V382.2z M504.7,424.5
	c0-12.6,10.2-22.8,22.7-22.8c12.6,0,22.7,10.2,22.7,22.8v2.4h-45.5L504.7,424.5z M451.6,424.5c0-12.6,10.2-22.8,22.7-22.8
	c12.6,0,22.7,10.2,22.7,22.8v2.4h-45.5V424.5z M398.5,424.5c0-12.6,10.2-22.8,22.7-22.8s22.7,10.2,22.7,22.8v2.4h-45.5V424.5z
	 M345.4,424.5c0-12.6,10.2-22.8,22.7-22.8c12.6,0,22.7,10.2,22.7,22.8v2.4h-45.5L345.4,424.5z M292.3,424.5
	c0-12.6,10.2-22.8,22.7-22.8c12.6,0,22.7,10.2,22.7,22.8v2.4h-45.5L292.3,424.5z M530,459.3h12.7v32.1H530V459.3z M510.9,459.3h12.7
	v32.1h-12.7V459.3z M485.2,459.3h12.7v32.1h-12.7V459.3z M466,459.3h12.7v32.1H466V459.3z M363.3,459.3H376v32.1h-12.7V459.3z
	 M344.1,459.3h12.7v32.1h-12.7V459.3z M318.5,459.3h12.7v32.1h-12.7V459.3z M299.3,459.3H312v32.1h-12.7V459.3z M247.8,459.3h16
	v32.1h-16V459.3z M578.3,459.3h16v32.1h-16V459.3z M244.5,403.5c0-6.3,5.1-11.3,11.3-11.3c6.2,0,11.3,5.1,11.3,11.3v25.1
	c0,6.3-5.1,11.3-11.3,11.3c-6.2,0-11.3-5.1-11.3-11.3V403.5z M575,403.5c0-6.3,5.1-11.3,11.3-11.3c6.2,0,11.3,5.1,11.3,11.3v25.1
	c0,6.3-5.1,11.3-11.3,11.3c-6.2,0-11.3-5.1-11.3-11.3V403.5z M392.3,430.4h57.6v19.3H559v-64.4H283v64.4h109.2V430.4z M398.6,247.5
	h44.9v128.1h-44.9V247.5z M451.5,247.5h44.9v128.1h-44.9V247.5z M504.4,247.5h44.9v128.1h-44.9V247.5z M292.9,247.5h44.9v128.1
	h-44.9V247.5z M345.7,247.5h44.9v128.1h-44.9V247.5z M231.7,211.5h64.4L403.4,158H231.7V211.5z M410.3,158l-107.2,53.5h236.3
	L434.3,158l-11.9-6L410.3,158z M441.2,158l105.1,53.5h64.1V158H441.2z M398.5,436.8h45.1v61h3.1v-64.1h-51.3v64.1h3.1L398.5,436.8z
	 M650.9,96.8c0,0,43.8,44.6,56.8,57.3h-85.3l-57.3-57.3H650.9z M119.4,507.4V221.8h-12.9l26.2-63.9l95.2,0l0-3.1h181.6l7.8-3.9
	H228.1L288,90.3h266.1L614,151H427.5l7.6,3.9h179v3.1l95,0l26.2,63.9h-12.7v285.5H119.4z M191.8,96.8h85.8l-57.3,57.3H135
	C148,141.4,191.8,96.8,191.8,96.8z"/>
</svg>
